<svg width="32" height="49" viewBox="0 0 32 49" fill="none" xmlns="http://www.w3.org/2000/svg">
<path fill-rule="evenodd" clip-rule="evenodd" d="M24.084 24.1529C24.0393 24.4311 23.9304 24.6959 23.7654 24.9275C23.6004 25.159 23.3836 25.3512 23.1313 25.4898C22.6231 25.8086 22.1785 25.968 21.7286 26.1274C20.7705 26.4488 19.7621 26.7702 18.6956 27.143C17.5708 27.5157 16.5624 27.8885 15.6626 28.1585C14.5404 28.5313 13.4738 28.8526 12.4602 29.2254C11.6976 29.5425 10.9812 29.9556 10.3297 30.4544C9.72369 30.9877 9.19486 31.5983 8.75759 32.2695C8.30767 33.015 8.02448 33.9766 8.02448 35.0975C8.02448 37.342 8.58556 39.0491 9.71036 40.1161C10.8325 41.2396 12.9127 41.7718 15.996 41.7718C19.1402 41.7718 21.2733 41.1856 22.4008 40.0107C23.5203 38.8357 24.0814 37.1826 24.0814 35.0487V24.1529H24.084ZM15.9987 0.5C21.5036 0.5 25.545 1.51553 28.1254 3.59802C30.7085 5.62908 32 8.24119 32 11.3366V37.7148C32 38.7817 31.7777 39.9567 31.386 41.237C30.989 42.5225 30.2056 43.6949 28.9696 44.7592C27.7919 45.8313 26.1643 46.7389 24.0867 47.433C22.0091 48.1272 19.3149 48.5 16.0013 48.5C12.6931 48.5 9.99355 48.1272 7.91862 47.433C5.84369 46.7389 4.21338 45.8313 3.03565 44.7592C1.94004 43.8001 1.11006 42.589 0.62195 41.237C0.224961 39.9592 0 38.7843 0 37.7174V33.501C0 31.2565 0.616657 29.174 1.85262 27.3563C3.08858 25.4898 4.82739 24.2095 7.07435 23.4073C8.19651 23.0345 9.48805 22.6618 10.9463 22.181C12.4072 21.6976 13.7517 21.2169 15.1015 20.7927C16.4512 20.3633 17.629 19.934 18.6373 19.5586C19.2458 19.3221 19.8639 19.1094 20.49 18.921L21.5009 18.4402C21.8979 18.2268 22.287 17.9055 22.6813 17.4787C23.073 17.0545 23.4091 16.5737 23.6923 16.0389C23.9915 15.4599 24.1457 14.8203 24.1423 14.1724V12.4627C24.1464 11.8361 24.011 11.216 23.7453 10.645C23.5229 10.0023 23.073 9.41612 22.4564 8.88393C21.8397 8.34917 20.9955 7.92239 19.9871 7.59845C18.9761 7.28222 17.6316 7.12025 16.1125 7.12025C12.9683 7.12025 10.8907 7.71157 9.76859 8.93535C8.81581 10.0049 8.25473 11.3392 8.14358 12.8329C8.14358 13.1543 7.86304 13.3677 7.52427 13.3677L0.677529 13.4757C0.51489 13.4764 0.358555 13.4146 0.242564 13.3039C0.126572 13.1931 0.0603177 13.0423 0.0582251 12.8844V11.3418C0.0582251 9.8429 0.341411 8.45458 0.958068 7.12025C1.57737 5.78334 2.53279 4.66497 3.82169 3.70086C5.11322 2.74189 6.79911 1.94231 8.81846 1.40755C10.7849 0.76481 13.1986 0.5 16.004 0.5H15.9987Z" fill="#0A3871"/>
</svg>
