<svg width="28" height="30" viewBox="0 0 28 30" fill="none" xmlns="http://www.w3.org/2000/svg">
<path d="M27.7071 22.7071C28.0976 22.3166 28.0976 21.6834 27.7071 21.2929L21.3431 14.9289C20.9526 14.5384 20.3195 14.5384 19.9289 14.9289C19.5384 15.3195 19.5384 15.9526 19.9289 16.3431L25.5858 22L19.9289 27.6569C19.5384 28.0474 19.5384 28.6805 19.9289 29.0711C20.3195 29.4616 20.9526 29.4616 21.3431 29.0711L27.7071 22.7071ZM1 23H27V21H1V23Z" fill="#072B61"/>
<path d="M0.292895 7.29289C-0.0976292 7.68342 -0.0976292 8.31658 0.292895 8.70711L6.65686 15.0711C7.04738 15.4616 7.68055 15.4616 8.07107 15.0711C8.46159 14.6805 8.46159 14.0474 8.07107 13.6569L2.41422 8L8.07107 2.34315C8.46159 1.95262 8.46159 1.31946 8.07107 0.928932C7.68055 0.538408 7.04738 0.538408 6.65686 0.928932L0.292895 7.29289ZM27 7L1 7V9L27 9V7Z" fill="#072B61"/>
</svg>
